<svg width="48" height="57" viewBox="0 0 48 57" fill="none" xmlns="http://www.w3.org/2000/svg">
<path d="M45.7201 12.2596L26.2913 0.607082C25.5934 0.209228 24.804 0 24.0007 0C23.1974 0 22.4079 0.209228 21.7101 0.607082L2.28006 12.2583C1.57986 12.6874 1.00216 13.2898 0.602762 14.0074C0.203367 14.7249 -0.00421676 15.5334 6.49181e-05 16.3546V39.6258C-0.00413589 40.4475 0.203451 41.2565 0.602807 41.9746C1.00216 42.6927 1.57982 43.2959 2.28006 43.7258L7.37506 46.7683L7.40382 46.7846C9.97632 48.1008 10.9613 48.1008 12.1026 48.1008C16.1201 48.1008 18.6163 45.5008 18.6163 41.3146V18.7508C18.6186 18.4691 18.5091 18.198 18.3118 17.9969C18.1145 17.7959 17.8455 17.6813 17.5638 17.6783H14.7663C14.4846 17.6813 14.2156 17.7959 14.0183 17.9969C13.821 18.198 13.7115 18.4691 13.7138 18.7508V41.3146C13.724 41.6376 13.6505 41.9578 13.5005 42.244C13.3505 42.5303 13.129 42.7729 12.8576 42.9483C12.1201 43.3983 11.0488 43.3033 9.84007 42.6796L4.95757 39.7408C4.93887 39.7281 4.92362 39.7109 4.91315 39.6908C4.90269 39.6708 4.89733 39.6485 4.89756 39.6258V16.6833C4.89837 16.657 4.90548 16.6312 4.91832 16.6081C4.93115 16.5851 4.94932 16.5654 4.97131 16.5508L23.9513 4.92583C23.9655 4.91879 23.9811 4.91512 23.9969 4.91512C24.0128 4.91512 24.0284 4.91879 24.0426 4.92583L43.0338 16.5508C43.0554 16.5666 43.0729 16.5873 43.0849 16.6112C43.0969 16.6351 43.1029 16.6616 43.1026 16.6883V39.6258C43.103 39.6495 43.0982 39.673 43.0885 39.6947C43.0788 39.7163 43.0644 39.7355 43.0463 39.7508L24.0388 51.0821C24.0064 51.0933 23.9712 51.0933 23.9388 51.0821L19.0851 48.1996C18.941 48.1054 18.7745 48.051 18.6026 48.042C18.4307 48.033 18.2595 48.0697 18.1063 48.1483L18.0638 48.1733C16.7238 48.9671 16.3638 49.1733 15.1213 49.6258C14.9188 49.6996 14.4426 49.8758 14.4013 50.3471C14.3601 50.8183 14.8126 51.1533 15.2151 51.3871L21.7026 55.3708C22.3938 55.7849 23.1843 56.0039 23.9901 56.0046H24.0626C24.8482 55.9923 25.6168 55.7737 26.2913 55.3708L45.7201 43.7296C46.4199 43.2983 46.9972 42.6944 47.3965 41.9757C47.7957 41.2571 48.0036 40.4479 48.0001 39.6258V16.3546C48.004 15.5336 47.7963 14.7255 47.3969 14.0082C46.9975 13.2909 46.42 12.6886 45.7201 12.2596Z" fill="white"/>
<path d="M30.4852 35.7571C25.8239 35.7571 24.8301 34.4546 24.5351 32.3521C24.5019 32.1018 24.3799 31.8717 24.1913 31.7038C24.0028 31.5358 23.7601 31.4412 23.5076 31.4371H21.0326C20.7537 31.443 20.4885 31.5592 20.295 31.7602C20.1015 31.9612 19.9955 32.2307 20.0001 32.5096C20.0001 34.3321 20.6402 40.2809 30.4902 40.2809C33.5377 40.2809 36.0726 39.5684 37.8189 38.2196C39.5651 36.8709 40.5001 34.9084 40.5001 32.5696C40.5001 27.8759 37.4376 26.5909 31.4064 25.7509C25.2751 24.8984 25.2752 24.4646 25.2752 23.5146C25.2752 22.8309 25.2752 21.2296 29.7077 21.2296C32.8614 21.2296 34.5501 21.6284 35.0901 23.7296C35.138 23.9626 35.2639 24.1722 35.4471 24.3238C35.6304 24.4755 35.8599 24.56 36.0976 24.5634H38.5814C38.7278 24.5619 38.8722 24.5293 39.0049 24.4676C39.1377 24.406 39.2558 24.3168 39.3514 24.2059C39.5424 23.9829 39.6376 23.6936 39.6164 23.4009C39.2951 18.9571 36.0464 16.7034 29.7114 16.7034C23.9539 16.7034 20.5176 19.2971 20.5176 23.6409C20.5176 28.4034 24.0789 29.7496 29.4289 30.3071C35.6789 30.9534 35.6789 31.8959 35.6789 32.7284C35.6826 34.0259 35.1439 35.7571 30.4852 35.7571Z" fill="white"/>
</svg>
