<svg width="38" height="38" viewBox="0 0 38 38" fill="none" xmlns="http://www.w3.org/2000/svg">
<path d="M14.9375 17.2188C14.9375 17.9264 14.3639 18.5 13.6562 18.5C12.9486 18.5 12.375 17.9264 12.375 17.2188C12.375 16.5111 12.9486 15.9375 13.6562 15.9375C14.3639 15.9375 14.9375 16.5111 14.9375 17.2188Z" fill="#0455BF" stroke="#0455BF"/>
<path d="M12.4731 23.0624L12.4731 23.0625H12.4806H25.5201V23.0626L25.5276 23.0624C25.5422 23.0622 25.5566 23.0654 25.5698 23.0718L25.7873 22.6216L25.5698 23.0718C25.5829 23.0781 25.5944 23.0875 25.6033 23.099C25.6122 23.1106 25.6183 23.1241 25.6211 23.1385C25.6237 23.1521 25.6233 23.1662 25.6198 23.1796C24.7919 25.9544 22.1534 28 19.0037 28C15.8545 28 13.2162 25.9549 12.3808 23.1793C12.3774 23.1659 12.377 23.152 12.3796 23.1385C12.3824 23.1241 12.3885 23.1106 12.3974 23.099C12.4063 23.0875 12.4177 23.0781 12.4309 23.0718C12.444 23.0654 12.4585 23.0622 12.4731 23.0624Z" fill="#0455BF" stroke="#0455BF"/>
<path d="M24.3438 19C25.3275 19 26.125 18.2025 26.125 17.2188C26.125 16.235 25.3275 15.4375 24.3438 15.4375C23.36 15.4375 22.5625 16.235 22.5625 17.2188C22.5625 18.2025 23.36 19 24.3438 19Z" fill="#0455BF"/>
<path d="M19 34.4375C27.5259 34.4375 34.4375 27.5259 34.4375 19C34.4375 10.4741 27.5259 3.5625 19 3.5625C10.4741 3.5625 3.5625 10.4741 3.5625 19C3.5625 27.5259 10.4741 34.4375 19 34.4375Z" stroke="#0455BF" stroke-width="5" stroke-miterlimit="10"/>
</svg>
