<svg width="24" height="24" viewBox="0 0 24 24" fill="none" xmlns="http://www.w3.org/2000/svg">
<path d="M22.0805 0H2.05071C0.956248 0 0 0.7875 0 1.86911V21.9434C0 23.0309 0.956248 24 2.05071 24H22.0746C23.175 24 24 23.0245 24 21.9434V1.86911C24.0064 0.7875 23.175 0 22.0805 0ZM7.43945 20.0052H4.00124V9.315H7.43945V20.0052ZM5.83928 7.68964H5.81463C4.71428 7.68964 4.00178 6.87054 4.00178 5.84518C4.00178 4.80107 4.73303 4.00125 5.85803 4.00125C6.98302 4.00125 7.67142 4.79518 7.69606 5.84518C7.69552 6.87054 6.98302 7.68964 5.83928 7.68964ZM20.0051 20.0052H16.5669V14.16C16.5669 12.7596 16.0666 11.8029 14.8227 11.8029C13.8723 11.8029 13.3098 12.4457 13.0596 13.072C12.9659 13.297 12.9407 13.6034 12.9407 13.9162V20.0052H9.50249V9.315H12.9407V10.8027C13.441 10.0902 14.2227 9.06482 16.0414 9.06482C18.2984 9.06482 20.0057 10.5525 20.0057 13.7598L20.0051 20.0052Z" fill="white"/>
</svg>
