<svg width="56" height="56" viewBox="0 0 56 56" fill="none" xmlns="http://www.w3.org/2000/svg">
<path d="M28 0C12.5375 0 0 12.8625 0 28.7125C0 41.4 8.025 52.15 19.15 55.95C19.306 55.9839 19.4653 56.0007 19.625 56C20.6625 56 21.0625 55.2375 21.0625 54.575C21.0625 53.8875 21.0375 52.0875 21.025 49.6875C20.0988 49.9046 19.1513 50.0178 18.2 50.025C12.8125 50.025 11.5875 45.8375 11.5875 45.8375C10.3125 42.525 8.475 41.6375 8.475 41.6375C6.0375 39.925 8.4625 39.875 8.65 39.875H8.6625C11.475 40.125 12.95 42.85 12.95 42.85C14.35 45.3 16.225 45.9875 17.9 45.9875C19.0075 45.9653 20.098 45.7098 21.1 45.2375C21.35 43.3875 22.075 42.125 22.875 41.4C16.6625 40.675 10.125 38.2125 10.125 27.2125C10.125 24.075 11.2125 21.5125 13 19.5125C12.7125 18.7875 11.75 15.8625 13.275 11.9125C13.4796 11.8636 13.6898 11.8425 13.9 11.85C14.9125 11.85 17.2 12.2375 20.975 14.8625C25.5619 13.5791 30.4131 13.5791 35 14.8625C38.775 12.2375 41.0625 11.85 42.075 11.85C42.2852 11.8425 42.4954 11.8636 42.7 11.9125C44.225 15.8625 43.2625 18.7875 42.975 19.5125C44.7625 21.525 45.85 24.0875 45.85 27.2125C45.85 38.2375 39.3 40.6625 33.0625 41.375C34.0625 42.2625 34.9625 44.0125 34.9625 46.6875C34.9625 50.525 34.925 53.625 34.925 54.5625C34.925 55.2375 35.3125 56 36.35 56C36.5179 56.0007 36.6855 55.984 36.85 55.95C47.9875 52.15 56 41.3875 56 28.7125C56 12.8625 43.4625 0 28 0Z" fill="#0455BF"/>
</svg>
