<svg width="119" height="92" viewBox="0 0 119 92" fill="none" xmlns="http://www.w3.org/2000/svg">
<rect width="119" height="92" fill="#0455BF"/>
<path d="M49.4641 53.7L42.5141 46.75L35.6641 53.65L30.1141 48.15L36.9641 41.2L30.3141 34.55L35.9141 29L42.5641 35.65L49.1141 29L54.7141 34.5L48.0641 41.15L55.0641 48.15L49.4641 53.7ZM58.65 71C55.1833 71 52.1167 70.6167 49.45 69.85C46.7833 69.1167 44.5667 68 42.8 66.5C41 65.0333 39.65 63.2333 38.75 61.1H43.75C44.6167 62.0667 45.7333 62.9167 47.1 63.65C48.4667 64.4167 50.1167 65 52.05 65.4C53.9833 65.8333 56.1833 66.05 58.65 66.05C60.9167 66.05 62.9667 65.8667 64.8 65.5C66.6667 65.1333 68.3 64.5833 69.7 63.85C71.1333 63.1167 72.3333 62.2 73.3 61.1H78.3C76.6333 64.5667 74.0833 67.0833 70.65 68.65C67.2167 70.2167 63.2167 71 58.65 71ZM81.3 53.7L74.35 46.75L67.5 53.65L61.95 48.15L68.8 41.2L62.15 34.55L67.75 29L74.4 35.65L80.95 29L86.55 34.5L79.9 41.15L86.9 48.15L81.3 53.7Z" fill="white"/>
</svg>
