<svg width="56" height="56" viewBox="0 0 56 56" fill="none" xmlns="http://www.w3.org/2000/svg">
<path d="M39.6662 4.66625C42.7578 4.67548 45.7201 5.9077 47.9062 8.09378C50.0923 10.2799 51.3245 13.2422 51.3338 16.3337V39.6662C51.3245 42.7578 50.0923 45.7201 47.9062 47.9062C45.7201 50.0923 42.7578 51.3245 39.6662 51.3338H16.3337C13.2422 51.3245 10.2799 50.0923 8.09378 47.9062C5.9077 45.7201 4.67548 42.7578 4.66625 39.6662V16.3337C4.67548 13.2422 5.9077 10.2799 8.09378 8.09378C10.2799 5.9077 13.2422 4.67548 16.3337 4.66625H39.6662ZM39.6662 0H16.3337C7.35 0 0 7.35 0 16.3337V39.6662C0 48.65 7.35 56 16.3337 56H39.6662C48.65 56 56 48.65 56 39.6662V16.3337C56 7.35 48.65 0 39.6662 0Z" fill="#0455BF"/>
<path d="M43.1663 16.3337C42.474 16.3337 41.7973 16.1285 41.2218 15.7439C40.6462 15.3593 40.1976 14.8127 39.9327 14.1731C39.6678 13.5336 39.5985 12.8299 39.7335 12.1509C39.8686 11.472 40.2019 10.8484 40.6914 10.3589C41.1809 9.86938 41.8045 9.53604 42.4834 9.40099C43.1624 9.26595 43.8661 9.33526 44.5056 9.60016C45.1452 9.86507 45.6918 10.3137 46.0764 10.8892C46.461 11.4648 46.6662 12.1415 46.6662 12.8337C46.6672 13.2936 46.5774 13.7492 46.4018 14.1743C46.2263 14.5994 45.9685 14.9856 45.6433 15.3108C45.3181 15.636 44.9319 15.8938 44.5068 16.0693C44.0817 16.2449 43.6262 16.3347 43.1663 16.3337ZM28 18.6662C29.846 18.6662 31.6506 19.2137 33.1856 20.2393C34.7205 21.2649 35.9168 22.7226 36.6233 24.4281C37.3297 26.1336 37.5146 28.0103 37.1544 29.8209C36.7943 31.6315 35.9053 33.2946 34.6 34.6C33.2946 35.9053 31.6315 36.7943 29.8209 37.1544C28.0104 37.5145 26.1337 37.3297 24.4281 36.6233C22.7226 35.9168 21.2649 34.7205 20.2393 33.1855C19.2137 31.6506 18.6663 29.846 18.6663 28C18.6689 25.5253 19.6531 23.1528 21.403 21.403C23.1528 19.6531 25.5254 18.6689 28 18.6662ZM28 14C25.2311 14 22.5243 14.8211 20.222 16.3594C17.9197 17.8978 16.1253 20.0843 15.0657 22.6424C14.0061 25.2006 13.7288 28.0155 14.269 30.7313C14.8092 33.447 16.1426 35.9416 18.1005 37.8995C20.0584 39.8574 22.553 41.1908 25.2687 41.731C27.9845 42.2712 30.7994 41.9939 33.3576 40.9343C35.9157 39.8747 38.1022 38.0803 39.6406 35.778C41.1789 33.4757 42 30.7689 42 28C42 24.287 40.525 20.726 37.8995 18.1005C35.274 15.475 31.713 14 28 14Z" fill="#0455BF"/>
</svg>
